<?xml version="1.0" encoding="UTF-8"?><svg xmlns="http://www.w3.org/2000/svg" viewBox="0 0 118 145.73"><defs><style>.d{fill:#00aeef;}.e{fill:#fff;}.f{fill:#ffd527;}.g{fill:#d91b5c;}.h{fill:#3a3a3c;}</style></defs><g id="a"/><g id="b"><g id="c"><rect class="f" x="104" y="18" width="9" height="10"/><polygon class="g" points="94 18 85 18 85 28 94 28 104 28 104 18 94 18"/><rect class="d" x="75" y="18" width="10" height="10"/><rect class="g" x="104" y="9" width="9" height="9"/><rect class="d" x="94" y="9" width="10" height="9"/><rect class="f" x="85" y="9" width="9" height="9"/><rect class="e" x="75" y="9" width="10" height="9"/><g><rect class="e" x="104" width="12" height="9"/><rect class="d" x="94" width="10" height="9"/><rect class="e" x="78" width="16" height="9"/><rect class="e" x="75" width="10" height="9"/></g><rect class="h" x="104" y="47" width="9" height="9"/><rect class="e" x="94" y="47" width="10" height="9"/><rect class="h" x="85" y="47" width="9" height="9"/><rect class="d" x="75" y="47" width="10" height="9"/><rect class="e" x="104" y="37" width="14" height="10"/><rect class="g" x="94" y="37" width="10" height="10"/><rect class="h" x="75" y="37" width="10" height="10"/><rect class="g" x="104" y="28" width="9" height="9"/><rect class="f" x="94" y="28" width="10" height="9"/><polygon class="d" points="85 28 85 37 85 47 94 47 94 37 94 28 85 28"/><rect class="f" x="75" y="28" width="10" height="9"/><rect class="h" x="104" y="75" width="9" height="9"/><g><path class="h" d="M104,75h0v-10h-19v10h-10v9h0v5.73c0,2.56-.39,4.92-1.44,7.07-1.04,2.16-2.38,4.01-4.12,5.59-1.74,1.57-3.72,2.79-5.99,3.66-2.27,.87-4.67,1.31-7.22,1.31s-4.79-.44-7.06-1.31c-2.27-.87-4.27-2.09-6.01-3.66-1.74-1.57-3.34-3.43-4.39-5.59-1.05-2.15-1.77-4.5-1.77-7.07V1H0V92c0,6.17,.88,11.99,2.92,17.44,2.03,5.47,4.82,10.41,8.48,14.83,3.66,4.42,7.96,8.23,12.96,11.43,5,3.2,10.39,5.67,16.21,7.41,2.56,.81,5.14,1.45,7.75,1.92,2.61,.47,5.25,.7,7.93,.7s5.35-.23,8.02-.7c2.67-.47,5.29-1.1,7.85-1.92,5.81-1.75,11.23-4.21,16.23-7.41,5-3.2,9.33-7.01,13-11.43,3.67-4.41,6.54-9.36,8.57-14.83,2.04-5.46,3.08-11.27,3.08-17.44v-17h-9Z"/><rect class="g" x="104" y="75" width="9" height="10"/><rect class="f" x="75" y="65" width="10" height="10"/></g><g><rect class="g" x="104" y="56" width="9" height="9"/><rect class="d" x="94" y="56" width="10" height="9"/><rect class="e" x="85" y="56" width="9" height="9"/><rect class="h" x="75" y="56" width="10" height="9"/></g></g></g></svg>