<?xml version="1.0" encoding="UTF-8"?><svg id="a" xmlns="http://www.w3.org/2000/svg" viewBox="0 0 242.42 84.25"><defs><style>.b{fill:#00aeef;}.c{fill:#fff;}.d{fill:#ffd527;}.e{fill:#d91b5c;}.f{fill:#3a3a3c;}.g{fill:none;stroke:#3a3a3c;stroke-miterlimit:10;}.h{isolation:isolate;}</style></defs><g transform="translate(-686 -208)"><g transform="translate(726.26 226)"><g class="h" transform="translate(36.74 26)"><g class="h"><path class="f" d="M80.42,42.11c-1.42-1.42-2.12-3.12-2.12-5.13v-13.97h1.93v13.97c0,1.46,.52,2.72,1.55,3.76,1.04,1.04,2.3,1.57,3.76,1.57s2.72-.52,3.76-1.57c1.04-1.04,1.55-2.3,1.55-3.76v-13.97h1.93v13.97c0,2-.71,3.71-2.12,5.13s-3.12,2.12-5.13,2.12-3.71-.71-5.13-2.12Z"/></g><g class="h"><path class="g" d="M80.42,42.11c-1.42-1.42-2.12-3.12-2.12-5.13v-13.97h1.93v13.97c0,1.46,.52,2.72,1.55,3.76,1.04,1.04,2.3,1.57,3.76,1.57s2.72-.52,3.76-1.57c1.04-1.04,1.55-2.3,1.55-3.76v-13.97h1.93v13.97c0,2-.71,3.71-2.12,5.13s-3.12,2.12-5.13,2.12-3.71-.71-5.13-2.12Z"/></g></g><g class="h" transform="translate(55.63 26)"><g class="h"><path class="f" d="M109.15,22.96v1.93h-5.51v19.1h-1.93V24.9h-5.52v-1.93h12.96Z"/><path class="f" d="M126.72,22.96v21.04h-1.93v-9.58h-10.66v9.58h-1.93V22.96h1.93v9.52h10.66v-9.52h1.93Z"/></g><g class="h"><path class="g" d="M109.15,22.96v1.93h-5.51v19.1h-1.93V24.9h-5.52v-1.93h12.96Z"/><path class="g" d="M126.72,22.96v21.04h-1.93v-9.58h-10.66v9.58h-1.93V22.96h1.93v9.52h10.66v-9.52h1.93Z"/></g></g><g class="h" transform="translate(88.98 26)"><g class="h"><path class="f" d="M141.3,22.96v1.93h-8.8v7.59h6.96v1.93h-6.96v7.65h8.8v1.93h-10.74V22.96h10.74Z"/><path class="f" d="M159.22,44h-2.17l-4.94-9.51h-5.04v9.49h-1.93V22.96h7.56c1.59,0,2.95,.57,4.07,1.7,1.12,1.12,1.68,2.48,1.68,4.07,0,1.32-.41,2.5-1.22,3.54-.79,1.02-1.81,1.69-3.05,2.02l5.02,9.7Zm-6.52-11.44c1.05,0,1.96-.37,2.71-1.11,.74-.75,1.11-1.66,1.11-2.71s-.37-1.96-1.11-2.71c-.75-.75-1.66-1.13-2.71-1.13h-5.62v7.66h5.62Z"/></g><g class="h"><path class="g" d="M141.3,22.96v1.93h-8.8v7.59h6.96v1.93h-6.96v7.65h8.8v1.93h-10.74V22.96h10.74Z"/><path class="g" d="M159.22,44h-2.17l-4.94-9.51h-5.04v9.49h-1.93V22.96h7.56c1.59,0,2.95,.57,4.07,1.7,1.12,1.12,1.68,2.48,1.68,4.07,0,1.32-.41,2.5-1.22,3.54-.79,1.02-1.81,1.69-3.05,2.02l5.02,9.7Zm-6.52-11.44c1.05,0,1.96-.37,2.71-1.11,.74-.75,1.11-1.66,1.11-2.71s-.37-1.96-1.11-2.71c-.75-.75-1.66-1.13-2.71-1.13h-5.62v7.66h5.62Z"/></g></g><g class="h" transform="translate(121.05 26)"><g class="h"><path class="f" d="M178.5,22.96l-13.3,21.04h-2.58V22.96h1.93v18.46l11.66-18.46h2.29Z"/></g></g><g class="h" transform="translate(139.75 26)"><g class="h"><path class="f" d="M192.07,22.96v1.93h-8.8v7.59h6.96v1.93h-6.96v7.65h8.8v1.93h-10.74V22.96h10.74Z"/><path class="f" d="M209.99,44h-2.17l-4.94-9.51h-5.04v9.49h-1.93V22.96h7.56c1.59,0,2.95,.57,4.07,1.7,1.12,1.12,1.68,2.48,1.68,4.07,0,1.32-.41,2.5-1.22,3.54-.79,1.02-1.81,1.69-3.05,2.02l5.02,9.7Zm-6.52-11.44c1.05,0,1.96-.37,2.71-1.11,.74-.75,1.11-1.66,1.11-2.71s-.37-1.96-1.11-2.71c-.75-.75-1.66-1.13-2.71-1.13h-5.62v7.66h5.62Z"/><path class="f" d="M218.74,44.19c-1.36-.06-2.6-.42-3.74-1.07-1.29-.74-2.16-1.73-2.62-2.97l1.82-.66c.31,.84,.95,1.52,1.9,2.04,.84,.45,1.75,.7,2.72,.75,1.49,.06,2.74-.32,3.75-1.13,.9-.72,1.37-1.57,1.42-2.55,.08-1.84-1.6-3.24-5.04-4.2-2.48-.69-4.25-1.66-5.32-2.9-.81-.95-1.19-2.01-1.14-3.19,.09-2,.94-3.5,2.55-4.48,1.28-.78,2.83-1.13,4.64-1.04,2.19,.1,3.94,.85,5.24,2.26l-1.42,1.32c-.95-1.03-2.25-1.58-3.91-1.66-1.43-.06-2.61,.2-3.54,.76-1.03,.63-1.57,1.61-1.63,2.93-.08,1.8,1.6,3.18,5.04,4.15,2.48,.69,4.25,1.67,5.32,2.92,.81,.96,1.19,2.03,1.14,3.22-.08,1.57-.79,2.9-2.14,3.98-1.29,1.04-2.85,1.55-4.67,1.55-.13,0-.25,0-.38-.01Z"/></g></g><g class="h" transform="translate(188.22 26)"><g class="h"><path class="f" d="M240.54,22.96v1.93h-8.8v7.59h6.96v1.93h-6.96v7.65h8.8v1.93h-10.74V22.96h10.74Z"/></g></g><g class="h" transform="translate(138.33 44)"><g class="h"><path class="f" d="M179.4,62v-13.32h3.27c1.84,0,3.41,.65,4.71,1.96s1.95,2.87,1.95,4.7-.65,3.41-1.95,4.7-2.88,1.96-4.71,1.96h-3.27Zm1.21-1.21h2.06c1.5,0,2.79-.53,3.85-1.6,1.06-1.06,1.6-2.35,1.6-3.85s-.53-2.79-1.6-3.85c-1.06-1.06-2.35-1.6-3.85-1.6h-2.06v10.89Z"/></g></g><g class="h" transform="translate(151.06 44)"><g class="h"><path class="f" d="M191.69,48.61h1.23v13.39h-1.23v-13.39Z"/></g></g><g class="h" transform="translate(155.18 44)"><g class="h"><path class="f" d="M197.6,60.13c-1.33-1.32-1.99-2.92-1.99-4.8s.66-3.47,1.99-4.8c1.32-1.32,2.92-1.99,4.8-1.99,.92,0,1.8,.18,2.64,.53l-.48,1.13c-.69-.29-1.41-.44-2.16-.44-1.54,0-2.85,.54-3.93,1.62-1.09,1.09-1.63,2.4-1.63,3.93s.54,2.84,1.63,3.93c1.09,1.09,2.4,1.63,3.93,1.63,.62,0,1.22-.1,1.8-.3v-4.69h-2.77v-1.22h4v6.74l-.37,.16c-.85,.36-1.73,.54-2.65,.54-1.88,0-3.47-.67-4.8-2Z"/></g></g><g class="h" transform="translate(167.89 44)"><g class="h"><path class="f" d="M208.52,48.61h1.23v13.39h-1.23v-13.39Z"/></g></g><g class="h" transform="translate(171.63 44)"><g class="h"><path class="f" d="M220.29,48.68v1.22h-3.49v12.1h-1.22v-12.1h-3.5v-1.22h8.21Z"/></g></g><g class="h" transform="translate(179.51 44)"><g class="h"><path class="f" d="M229.89,48.68v13.32h-1.22v-3.33h-5.29l-2.11,3.33h-1.45l8.42-13.32h1.63Zm-5.73,8.77h4.52v-7.13l-4.52,7.13Z"/></g></g><g class="h" transform="translate(192.14 44)"><g class="h"><path class="f" d="M234.46,48.68v12.1h6.19v1.22h-7.41v-13.32h1.22Z"/></g></g></g><g transform="translate(686 208)"><rect class="d" x="60.13" y="10.41" width="5.2" height="5.78"/><path class="e" d="M54.34,10.41h-5.2v5.78h10.98v-5.78h-5.78Z"/><rect class="b" x="43.36" y="10.41" width="5.78" height="5.78"/><rect class="e" x="60.13" y="5.2" width="5.2" height="5.2"/><rect class="b" x="54.35" y="5.2" width="5.78" height="5.2"/><rect class="d" x="49.14" y="5.2" width="5.2" height="5.2"/><rect class="c" x="43.36" y="5.2" width="5.78" height="5.2"/><g transform="translate(43.359)"><rect class="c" x="60.13" width="6.94" height="5.2"/><rect class="b" x="54.35" width="5.78" height="5.2"/><rect class="c" x="45.1" width="9.25" height="5.2"/><rect class="c" x="43.36" width="5.78" height="5.2"/></g><rect class="f" x="60.13" y="27.17" width="5.2" height="5.2"/><rect class="c" x="54.35" y="27.17" width="5.78" height="5.2"/><rect class="f" x="49.14" y="27.17" width="5.2" height="5.2"/><rect class="b" x="43.36" y="27.17" width="5.78" height="5.2"/><rect class="c" x="60.13" y="21.39" width="8.09" height="5.78"/><rect class="e" x="54.35" y="21.39" width="5.78" height="5.78"/><rect class="f" x="43.36" y="21.39" width="5.78" height="5.78"/><rect class="e" x="60.13" y="16.19" width="5.2" height="5.2"/><rect class="d" x="54.35" y="16.19" width="5.78" height="5.2"/><path class="b" d="M49.14,16.19v10.98h5.2v-10.98h-5.2Z"/><rect class="d" x="43.36" y="16.19" width="5.78" height="5.2"/><rect class="f" x="60.13" y="43.36" width="5.2" height="5.2"/><g transform="translate(0 0.578)"><path class="f" d="M60.13,43.36h0v-5.78h-10.98v5.78h-5.78v5.2h0v3.32c.04,1.41-.24,2.81-.83,4.09-.58,1.22-1.38,2.32-2.38,3.23-1.01,.91-2.19,1.63-3.46,2.12-1.33,.51-2.75,.76-4.17,.76-2.79,0-5.47-1.02-7.56-2.87-1.04-.91-1.91-2-2.54-3.23-.65-1.27-1-2.66-1.02-4.09V.58H0V53.19c-.05,3.44,.52,6.85,1.69,10.08,1.14,3.12,2.79,6.01,4.9,8.57,2.14,2.58,4.67,4.81,7.49,6.61,2.91,1.86,6.06,3.3,9.37,4.28,1.47,.47,2.96,.84,4.48,1.11,1.51,.27,3.05,.4,4.58,.4,1.55,0,3.11-.13,4.64-.4,1.54-.27,3.05-.64,4.54-1.11,3.31-.99,6.47-2.43,9.38-4.28,2.83-1.8,5.37-4.03,7.52-6.61,2.13-2.56,3.8-5.45,4.95-8.57,1.2-3.23,1.8-6.64,1.78-10.08v-9.83h-5.2Z"/><rect class="e" x="60.13" y="43.36" width="5.2" height="5.78"/><rect class="d" x="43.36" y="37.58" width="5.78" height="5.78"/></g><g transform="translate(43.359 32.375)"><rect class="e" x="60.13" y="32.38" width="5.2" height="5.2"/><rect class="b" x="54.35" y="32.38" width="5.78" height="5.2"/><rect class="c" x="49.14" y="32.38" width="5.2" height="5.2"/><rect class="f" x="43.36" y="32.38" width="5.78" height="5.2"/></g></g></g></svg>