<svg xmlns="http://www.w3.org/2000/svg" width="170.656" height="43.016" viewBox="0 0 170.656 43.016">
  <g id="Group_12" data-name="Group 12" transform="translate(-677 -191.349)">
    <g id="b" transform="translate(717.8 192.617)">
      <g id="c" transform="translate(2.2 4.776)">
        <g id="Group_8" data-name="Group 8">
          <path id="Path_4" data-name="Path 4" d="M3.867,20.027A5.478,5.478,0,0,1,2.2,15.994V5.01H3.717V15.994a4.188,4.188,0,0,0,4.175,4.191,4.015,4.015,0,0,0,2.956-1.234,4.03,4.03,0,0,0,1.219-2.956V5.01h1.517V15.994a5.521,5.521,0,0,1-1.667,4.033,5.466,5.466,0,0,1-4.033,1.667,5.509,5.509,0,0,1-4.033-1.667Z" transform="translate(-2.2 -4.826)" fill="#3a3a3c" stroke="#3a3a3c" stroke-miterlimit="10" stroke-width="1"/>
          <path id="Path_5" data-name="Path 5" d="M30.29,4.97V6.487H25.958V21.5H24.44V6.487H20.1V4.97H30.29Z" transform="translate(-6.026 -4.818)" fill="#3a3a3c" stroke="#3a3a3c" stroke-miterlimit="10" stroke-width="1"/>
          <path id="Path_6" data-name="Path 6" d="M47.516,4.97V21.5H46V13.973H37.617V21.5H36.1V4.97h1.517v7.485H46V4.97Z" transform="translate(-9.446 -4.818)" fill="#3a3a3c" stroke="#3a3a3c" stroke-miterlimit="10" stroke-width="1"/>
          <path id="Path_7" data-name="Path 7" d="M62.914,4.97V6.487H56v5.968h5.472v1.517H56v6.015h6.919V21.5H54.47V4.97Z" transform="translate(-13.373 -4.818)" fill="#3a3a3c" stroke="#3a3a3c" stroke-miterlimit="10" stroke-width="1"/>
          <path id="Path_8" data-name="Path 8" d="M80.12,21.5H78.414L74.53,14.028H70.567v7.462H69.05V4.97h5.944a4.347,4.347,0,0,1,3.2,1.337,4.362,4.362,0,0,1,1.321,3.2,4.531,4.531,0,0,1-3.357,4.372L80.1,21.5ZM74.994,12.51a2.98,2.98,0,0,0,3-3,3.007,3.007,0,0,0-3-3.019H70.575V12.51Z" transform="translate(-16.489 -4.818)" fill="#3a3a3c" stroke="#3a3a3c" stroke-miterlimit="10" stroke-width="1"/>
          <path id="Path_9" data-name="Path 9" d="M99.016,4.968,88.559,21.511H86.53V4.968h1.517V19.474L97.215,4.96h1.8Z" transform="translate(-20.225 -4.815)" fill="#3a3a3c"/>
          <path id="Path_10" data-name="Path 10" d="M113.684,4.97V6.487h-6.919v5.968h5.472v1.517h-5.472v6.015h6.919V21.5H105.24V4.97Z" transform="translate(-24.224 -4.818)" fill="#3a3a3c"/>
          <path id="Path_11" data-name="Path 11" d="M130.89,21.5h-1.706L125.3,14.028h-3.963v7.462H119.82V4.97h5.944a4.347,4.347,0,0,1,3.2,1.337,4.362,4.362,0,0,1,1.321,3.2,4.531,4.531,0,0,1-3.357,4.372l3.947,7.627Zm-5.126-8.995a2.98,2.98,0,0,0,3-3,3.007,3.007,0,0,0-3-3.019h-4.419V12.51Z" transform="translate(-27.341 -4.818)" fill="#3a3a3c"/>
          <path id="Path_12" data-name="Path 12" d="M141.291,21.613a6.41,6.41,0,0,1-2.941-.841,4.449,4.449,0,0,1-2.06-2.335l1.431-.519a3.06,3.06,0,0,0,1.494,1.6,5.028,5.028,0,0,0,2.139.59,4.275,4.275,0,0,0,2.948-.888,2.692,2.692,0,0,0,1.116-2q.094-2.17-3.963-3.3a8.365,8.365,0,0,1-4.183-2.28,3.52,3.52,0,0,1-.9-2.508,4.083,4.083,0,0,1,2-3.522,6.269,6.269,0,0,1,3.648-.818,5.709,5.709,0,0,1,4.12,1.777L145.033,7.6A4.266,4.266,0,0,0,141.959,6.3a4.911,4.911,0,0,0-2.783.6,2.663,2.663,0,0,0-1.282,2.3q-.094,2.123,3.963,3.263a8.314,8.314,0,0,1,4.183,2.3,3.576,3.576,0,0,1,.9,2.532,4.159,4.159,0,0,1-1.683,3.129,5.665,5.665,0,0,1-3.672,1.219c-.1,0-.2,0-.3-.008Z" transform="translate(-30.861 -4.776)" fill="#3a3a3c"/>
          <path id="Path_13" data-name="Path 13" d="M162.154,4.97V6.487h-6.919v5.968h5.472v1.517h-5.472v6.015h6.919V21.5H153.71V4.97Z" transform="translate(-34.585 -4.818)" fill="#3a3a3c"/>
          <path id="Path_14" data-name="Path 14" d="M103.31,41.153V30.68h2.579a5.232,5.232,0,0,1,3.7,8.932,5.078,5.078,0,0,1-3.7,1.541Zm.959-.951h1.62a4.285,4.285,0,0,0,0-8.57h-1.62v8.562Z" transform="translate(-23.812 -10.313)" fill="#3a3a3c"/>
          <path id="Path_15" data-name="Path 15" d="M115.61,30.62h.967V41.148h-.967V30.62Z" transform="translate(-26.441 -10.3)" fill="#3a3a3c"/>
          <path id="Path_16" data-name="Path 16" d="M121.092,39.663a5.339,5.339,0,0,1,3.774-9.113,5.348,5.348,0,0,1,2.076.417l-.377.888a4.344,4.344,0,0,0-1.7-.346,4.368,4.368,0,0,0,0,8.735,4.311,4.311,0,0,0,1.415-.236V36.321H124.1v-.959h3.145v5.3l-.291.126a5.281,5.281,0,0,1-2.084.425,5.149,5.149,0,0,1-3.774-1.573Z" transform="translate(-27.277 -10.285)" fill="#3a3a3c"/>
          <path id="Path_17" data-name="Path 17" d="M132.43,30.62h.967V41.148h-.967V30.62Z" transform="translate(-30.036 -10.3)" fill="#3a3a3c"/>
          <path id="Path_18" data-name="Path 18" d="M142.445,30.68v.959H139.7v9.514h-.959V31.639H135.99V30.68Z" transform="translate(-30.797 -10.313)" fill="#3a3a3c"/>
          <path id="Path_19" data-name="Path 19" d="M151.638,30.68V41.153h-.959V38.535h-4.159l-1.659,2.618h-1.14l6.62-10.473h1.282Zm-4.505,6.9h3.554V31.969Z" transform="translate(-32.449 -10.313)" fill="#3a3a3c"/>
          <path id="Path_20" data-name="Path 20" d="M158.109,30.68v9.514h4.867v.959H157.15V30.68Z" transform="translate(-35.32 -10.313)" fill="#3a3a3c"/>
        </g>
      </g>
    </g>
    <g id="b-2" data-name="b" transform="translate(677 191.349)">
      <g id="c-2" data-name="c">
        <rect id="Rectangle_33" data-name="Rectangle 33" width="2.657" height="2.952" transform="translate(30.699 5.313)" fill="#ffd527"/>
        <path id="Path_21" data-name="Path 21" d="M87.657,18H85v2.952h5.608V18Z" transform="translate(-59.91 -12.687)" fill="#d91b5c"/>
        <rect id="Rectangle_34" data-name="Rectangle 34" width="2.952" height="2.952" transform="translate(22.138 5.313)" fill="#00aeef"/>
        <rect id="Rectangle_35" data-name="Rectangle 35" width="2.657" height="2.657" transform="translate(30.699 2.657)" fill="#d91b5c"/>
        <rect id="Rectangle_36" data-name="Rectangle 36" width="2.952" height="2.657" transform="translate(27.747 2.657)" fill="#00aeef"/>
        <rect id="Rectangle_37" data-name="Rectangle 37" width="2.657" height="2.657" transform="translate(25.09 2.657)" fill="#ffd527"/>
        <rect id="Rectangle_38" data-name="Rectangle 38" width="2.952" height="2.657" transform="translate(22.138 2.657)" fill="#fff"/>
        <g id="Group_9" data-name="Group 9" transform="translate(22.138)">
          <rect id="Rectangle_39" data-name="Rectangle 39" width="3.542" height="2.657" transform="translate(8.56)" fill="#fff"/>
          <rect id="Rectangle_40" data-name="Rectangle 40" width="2.952" height="2.657" transform="translate(5.608)" fill="#00aeef"/>
          <rect id="Rectangle_41" data-name="Rectangle 41" width="4.723" height="2.657" transform="translate(0.886)" fill="#fff"/>
          <rect id="Rectangle_42" data-name="Rectangle 42" width="2.952" height="2.657" fill="#fff"/>
        </g>
        <rect id="Rectangle_43" data-name="Rectangle 43" width="2.657" height="2.657" transform="translate(30.699 13.873)" fill="#3a3a3c"/>
        <rect id="Rectangle_44" data-name="Rectangle 44" width="2.952" height="2.657" transform="translate(27.747 13.873)" fill="#fff"/>
        <rect id="Rectangle_45" data-name="Rectangle 45" width="2.657" height="2.657" transform="translate(25.09 13.873)" fill="#3a3a3c"/>
        <rect id="Rectangle_46" data-name="Rectangle 46" width="2.952" height="2.657" transform="translate(22.138 13.873)" fill="#00aeef"/>
        <rect id="Rectangle_47" data-name="Rectangle 47" width="4.132" height="2.952" transform="translate(30.699 10.922)" fill="#fff"/>
        <rect id="Rectangle_48" data-name="Rectangle 48" width="2.952" height="2.952" transform="translate(27.747 10.922)" fill="#d91b5c"/>
        <rect id="Rectangle_49" data-name="Rectangle 49" width="2.952" height="2.952" transform="translate(22.138 10.922)" fill="#3a3a3c"/>
        <rect id="Rectangle_50" data-name="Rectangle 50" width="2.657" height="2.657" transform="translate(30.699 8.265)" fill="#d91b5c"/>
        <rect id="Rectangle_51" data-name="Rectangle 51" width="2.952" height="2.657" transform="translate(27.747 8.265)" fill="#ffd527"/>
        <path id="Path_22" data-name="Path 22" d="M85,28v5.608h2.657V28Z" transform="translate(-59.91 -19.735)" fill="#00aeef"/>
        <rect id="Rectangle_52" data-name="Rectangle 52" width="2.952" height="2.657" transform="translate(22.138 8.265)" fill="#ffd527"/>
        <rect id="Rectangle_53" data-name="Rectangle 53" width="2.657" height="2.657" transform="translate(30.699 22.138)" fill="#3a3a3c"/>
        <g id="Group_10" data-name="Group 10" transform="translate(0 0.295)">
          <path id="Path_23" data-name="Path 23" d="M30.7,22.843h0V19.891H25.09v2.952H22.138V25.5h0v1.691a4.671,4.671,0,0,1-.425,2.087,5.278,5.278,0,0,1-1.216,1.65,5.6,5.6,0,0,1-1.768,1.08A5.9,5.9,0,0,1,16.6,32.4a5.8,5.8,0,0,1-3.858-1.467,5.53,5.53,0,0,1-1.3-1.65,4.725,4.725,0,0,1-.522-2.087V1H0V27.861a14.552,14.552,0,0,0,.862,5.148,14.937,14.937,0,0,0,2.5,4.377,16.409,16.409,0,0,0,3.826,3.374,18.822,18.822,0,0,0,4.785,2.187,18.357,18.357,0,0,0,2.288.567,13.172,13.172,0,0,0,2.341.207,13.62,13.62,0,0,0,2.367-.207,17.572,17.572,0,0,0,2.317-.567,19.011,19.011,0,0,0,4.791-2.187,16.528,16.528,0,0,0,3.837-3.374,14.908,14.908,0,0,0,2.53-4.377,14.587,14.587,0,0,0,.909-5.148V22.843H30.7Z" transform="translate(0 -1)" fill="#3a3a3c"/>
          <rect id="Rectangle_54" data-name="Rectangle 54" width="2.657" height="2.952" transform="translate(30.699 21.843)" fill="#d91b5c"/>
          <rect id="Rectangle_55" data-name="Rectangle 55" width="2.952" height="2.952" transform="translate(22.138 18.891)" fill="#ffd527"/>
        </g>
        <g id="Group_11" data-name="Group 11" transform="translate(22.138 16.53)">
          <rect id="Rectangle_56" data-name="Rectangle 56" width="2.657" height="2.657" transform="translate(8.56)" fill="#d91b5c"/>
          <rect id="Rectangle_57" data-name="Rectangle 57" width="2.952" height="2.657" transform="translate(5.608)" fill="#00aeef"/>
          <rect id="Rectangle_58" data-name="Rectangle 58" width="2.657" height="2.657" transform="translate(2.952)" fill="#fff"/>
          <rect id="Rectangle_59" data-name="Rectangle 59" width="2.952" height="2.657" fill="#3a3a3c"/>
        </g>
      </g>
    </g>
  </g>
</svg>
